<svg viewBox="0 0 500 500" xmlns="http://www.w3.org/2000/svg">
  <defs>
    <linearGradient gradientUnits="userSpaceOnUse" x1="251.965" y1="80.713" x2="251.965" y2="429.356" id="gradient-0">
      <stop offset="0" style="stop-color: rgb(45.882% 94.51% 72.941%)"></stop>
      <stop offset="1" style="stop-color: rgb(0% 56.364% 37.466%)"></stop>
    </linearGradient>
  </defs>
  <path fill="none" stroke-linecap="round" stroke-linejoin="round" d="M 400 348.9 L 103.93 348.9 L 207.557 214.805 L 133.537 214.805 L 251.967 80.713 L 370.393 214.805 L 296.378 214.805 L 400 348.9 Z M 251.967 348.9 L 251.967 429.356" style="stroke-width: 20px; paint-order: fill; stroke-dashoffset: 1px; stroke: url(#gradient-0);"></path>
  <path fill="#284e64" d="M 262.127 312.611 L 262.137 312.545 L 266.302 288.163 L 262.127 312.611 Z M 292.211 288.103 L 278.697 312.534 L 292.214 288.107 L 306.981 261.322 L 292.211 288.103 Z M 292.67 240.193 L 288.333 248.12 L 292.67 240.193 Z M 211.275 281.938 L 227.842 264.129 L 211.275 281.938 Z M 214.799 288.381 L 233.099 273.842 L 214.799 288.381 Z M 214.799 288.381 L 213.574 286.138 L 214.799 288.381 L 227.818 312.275 L 214.799 288.381 Z M 219.368 279.903 L 227.842 264.164 L 243.318 292.644 L 227.846 264.147 L 214.739 240.193 L 227.839 264.154 L 219.368 279.903 Z M 257.509 318.777 L 257.561 318.889 L 260.014 323.402 L 257.509 318.777 Z M 274.823 272.688 L 266.292 288.128 L 256.803 305.593 L 266.292 288.132 L 274.823 272.688 Z M 274.823 272.688" style=""></path>
  <g fill="none" transform="matrix(0.488818, 0, 0, 0.488818, 188.012711, 224.725998)" style="">
    <path fill="url(#skillIconsViteLight0)" d="m227.088 57.602l-93.832 167.787c-1.938 3.465-6.915 3.485-8.881.038L28.682 57.617c-2.142-3.756 1.07-8.306 5.328-7.545l93.932 16.79a5.1 5.1 0 0 0 1.812-.004l91.968-16.763c4.243-.773 7.47 3.742 5.366 7.507"></path>
    <path fill="url(#skillIconsViteLight1)" d="m172.687 28.05l-69.438 13.605a2.55 2.55 0 0 0-2.055 2.352l-4.272 72.141a2.55 2.55 0 0 0 3.118 2.635l19.333-4.461c1.809-.417 3.443 1.176 3.072 2.995l-5.744 28.126c-.387 1.893 1.391 3.511 3.239 2.95l11.941-3.628c1.851-.562 3.63 1.061 3.238 2.956l-9.128 44.179c-.571 2.764 3.105 4.271 4.638 1.901l1.024-1.582l56.582-112.92c.948-1.89-.686-4.046-2.763-3.646l-19.899 3.841c-1.87.36-3.461-1.381-2.934-3.21l12.989-45.026c.528-1.832-1.069-3.575-2.941-3.209"></path>
    <defs>
      <linearGradient id="skillIconsViteLight0" x1="26.346" x2="143.127" y1="44.075" y2="202.673" gradientUnits="userSpaceOnUse">
        <stop stop-color="#41D1FF"></stop>
        <stop offset="1" stop-color="#BD34FE"></stop>
      </linearGradient>
      <linearGradient id="skillIconsViteLight1" x1="122.551" x2="143.676" y1="31.743" y2="176.66" gradientUnits="userSpaceOnUse">
        <stop stop-color="#FFEA83"></stop>
        <stop offset="0.083" stop-color="#FFDD35"></stop>
        <stop offset="1" stop-color="#FFA800"></stop>
      </linearGradient>
    </defs>
  </g>
</svg>